<svg version="1.1" id="Layer_1" xmlns="http://www.w3.org/2000/svg" xmlns:xlink="http://www.w3.org/1999/xlink" x="0px" y="0px"
	 width="100%" viewBox="0 0 1024 1024" enable-background="new 0 0 1024 1024" xml:space="preserve">
<path fill="#000000" opacity="1.000000" stroke="none" 
	d="
M432.416656,1025.000000 
	C423.128082,1019.953308 418.561768,1011.367371 414.099457,1002.813354 
	C410.560577,996.029480 407.902283,988.781433 403.610107,982.393555 
	C402.544495,980.807678 401.448181,979.056458 399.152863,978.053162 
	C398.216888,985.923828 397.257629,993.594910 396.416443,1001.278931 
	C396.122620,1003.962769 395.533234,1006.503174 394.337738,1008.937866 
	C390.337830,1017.084106 384.132874,1017.812256 378.492371,1010.795105 
	C374.747101,1006.135681 374.356903,1000.684875 374.996704,995.139832 
	C375.911530,987.211060 377.133728,979.316833 378.288239,971.417236 
	C378.632843,969.059204 378.922913,966.796265 376.785309,965.001099 
	C374.288391,965.479370 373.973511,967.698853 373.251282,969.429749 
	C368.889130,979.883606 364.409973,990.282593 359.369415,1000.431641 
	C357.855652,1003.479553 356.006927,1006.195068 352.581970,1007.391479 
	C347.639679,1009.118103 342.926819,1008.721313 339.033356,1005.112244 
	C335.404938,1001.749084 336.333405,997.546936 337.855072,993.488708 
	C341.295929,984.312439 345.390106,975.409912 350.000946,965.872131 
	C346.591125,966.014587 344.840668,967.455139 343.144043,969.273315 
	C338.338959,974.422668 334.626984,980.348328 330.764648,986.183838 
	C327.206024,991.560364 320.077362,993.936157 315.170715,991.595337 
	C310.034882,989.145142 308.756073,985.889099 311.021729,980.584595 
	C314.142487,973.277954 319.561523,967.511108 324.192535,961.218750 
	C324.866547,960.302917 325.576111,959.413330 325.558228,957.526428 
	C322.404877,959.852539 319.132690,962.036133 316.128845,964.541565 
	C312.549255,967.527039 309.329651,970.947815 305.719116,973.891724 
	C300.791779,977.909363 295.394104,980.831482 288.730377,978.356384 
	C282.363861,975.991699 280.431427,970.744934 283.516174,964.759705 
	C285.726959,960.470154 289.081879,957.396790 293.115295,954.840759 
	C298.590912,951.370789 304.536835,948.606750 309.341858,944.109375 
	C313.642914,940.083862 313.911926,937.480103 309.697327,933.198975 
	C301.447754,924.819153 291.465668,918.717102 281.627441,912.452515 
	C256.476837,896.437561 231.142471,880.695190 207.119522,862.987244 
	C175.423981,839.623657 148.865875,811.306519 126.578552,778.928162 
	C105.319214,748.043152 89.934502,714.339233 79.907845,678.310974 
	C73.711456,656.045776 69.378998,633.366577 67.428490,610.206238 
	C65.873390,591.740845 65.071625,573.288574 65.821373,554.828552 
	C66.455551,539.214172 69.216728,523.774658 72.034897,508.394592 
	C76.912247,481.776642 84.490303,455.941925 94.755043,430.911652 
	C118.174026,373.805176 153.240433,324.956848 199.488968,284.168976 
	C230.741821,256.606232 266.359711,235.910278 303.818207,217.996246 
	C338.026947,201.636368 373.865814,189.615112 409.421631,176.797653 
	C430.143127,169.327789 450.715271,161.383636 468.978699,148.869370 
	C505.950043,123.536285 531.087158,89.922279 539.316040,45.048691 
	C540.485168,38.673290 540.817688,32.138062 542.980042,25.959572 
	C546.385132,16.230455 552.627991,12.167892 562.827698,12.949665 
	C568.910583,13.415895 572.037415,16.419884 572.129883,22.487919 
	C572.192810,26.622616 571.681030,30.766071 571.368042,35.850636 
	C574.830994,31.255932 576.096741,26.498549 578.183228,22.204721 
	C582.793457,12.716948 587.423889,8.794181 594.302429,9.867878 
	C603.063477,11.235427 604.632141,18.308245 605.735535,25.404686 
	C606.575928,30.809433 607.038269,36.272964 607.740173,42.326088 
	C613.338440,39.033920 618.767578,36.004326 624.029785,32.708191 
	C631.768860,27.860582 640.414612,25.401003 649.030334,22.835613 
	C653.290710,21.567049 657.533020,21.654737 660.477661,25.376165 
	C663.387695,29.053804 662.695129,33.348743 660.596191,37.168369 
	C654.822388,47.675728 651.577148,59.035549 649.529358,70.693893 
	C645.726135,92.346977 649.205505,113.164246 658.311096,133.006790 
	C669.196167,156.726822 685.951538,175.998428 704.711487,193.816330 
	C726.948730,214.936951 752.799194,231.205002 777.449341,249.105804 
	C823.009033,282.191040 864.430725,319.608246 897.036926,365.915863 
	C921.546631,400.724792 941.127380,438.124481 953.558777,478.985229 
	C959.040710,497.003815 961.866882,515.582703 964.369446,534.254944 
	C967.973328,561.144531 967.965515,588.133179 966.821289,615.063049 
	C965.658997,642.416321 959.899170,669.152954 951.888184,695.355469 
	C942.605347,725.718201 930.940063,755.031189 914.155762,782.146912 
	C889.477844,822.015259 859.663940,857.252930 822.584229,886.291443 
	C778.704529,920.655090 730.231140,946.173767 677.512207,963.952026 
	C647.849976,973.954895 617.438477,979.774048 586.265076,982.435913 
	C558.603577,984.798035 531.022766,984.569702 503.429810,982.135132 
	C489.351868,980.893005 475.384155,978.755554 461.342255,975.303711 
	C460.820587,977.673218 462.499054,978.749268 463.578705,980.040283 
	C468.828522,986.318359 474.841553,991.845825 480.746765,997.482666 
	C482.300629,998.965942 483.826080,1000.561401 484.997803,1002.346130 
	C487.803436,1006.619324 486.578125,1010.879089 481.914246,1013.110840 
	C477.282837,1015.327209 472.780273,1014.522461 468.621124,1011.804993 
	C457.395660,1004.470642 446.975952,996.174133 439.112366,985.162659 
	C435.424438,979.998291 430.684113,976.300293 424.217712,972.540161 
	C427.365967,980.687561 430.391052,987.712036 434.150421,994.410645 
	C436.758667,999.058044 439.630951,1003.557678 442.220215,1008.215149 
	C446.494049,1015.902710 445.155457,1020.331909 437.241821,1024.759766 
	C435.611115,1025.000000 434.222198,1025.000000 432.416656,1025.000000 
M594.848633,847.405151 
	C557.234192,870.034668 517.103271,886.860046 475.082581,899.324768 
	C470.443115,900.700989 466.085754,899.101257 464.916016,895.624207 
	C463.799194,892.304565 466.151764,888.947083 470.872589,887.146179 
	C471.494385,886.908936 472.132111,886.701843 472.777100,886.538757 
	C484.264832,883.635010 495.360046,879.588074 506.354675,875.207397 
	C540.044128,861.784180 572.310913,845.455688 602.579163,825.574341 
	C634.099243,804.870728 660.973511,778.846924 685.486145,750.171387 
	C708.482727,723.269287 726.516113,693.167236 740.114380,660.990051 
	C757.815186,619.105042 765.606934,574.774780 765.143494,528.952148 
	C764.793213,494.315521 758.062988,461.165375 746.100037,428.954285 
	C731.483337,389.597656 709.757751,354.141144 685.257751,320.264374 
	C666.622253,294.496490 646.581421,269.740845 630.923584,241.856857 
	C609.881714,204.384949 596.835876,164.451965 594.080688,121.609451 
	C592.897583,103.211868 591.002502,84.786659 591.490540,66.262733 
	C591.661743,59.763241 591.401978,53.096889 589.042908,46.720554 
	C586.558716,47.643383 586.447693,49.647514 585.907898,51.322803 
	C583.408142,59.080433 581.354431,67.006958 578.422729,74.595505 
	C570.072876,96.208412 557.459167,115.433472 544.092590,134.181641 
	C530.137695,153.755066 513.080139,170.427536 493.905914,184.678802 
	C464.704010,206.383163 432.792511,223.873001 401.261902,241.877045 
	C358.319244,266.397339 317.220856,293.480255 280.919525,327.296936 
	C252.333435,353.926392 228.011551,384.005585 208.637115,418.013062 
	C193.320709,444.897552 181.812500,473.371643 171.785583,502.606323 
	C162.087357,530.882568 158.258804,559.832336 158.334686,589.513794 
	C158.403458,616.422729 162.107010,642.938538 166.896271,669.329224 
	C168.705170,679.296997 170.134995,689.473938 174.656662,698.657410 
	C181.350845,712.253357 188.419312,725.670532 195.561127,739.039490 
	C213.082367,771.838074 235.153275,800.999634 264.047272,824.766663 
	C275.494537,834.182678 286.538452,844.090698 297.714966,853.833313 
	C300.191620,855.992126 302.493103,858.510559 299.695923,861.913635 
	C296.932190,865.275940 293.512787,865.031311 290.405212,862.539978 
	C274.031616,849.413391 257.404175,836.601196 241.919907,822.386108 
	C218.059692,800.481506 200.757507,773.610291 183.641327,746.531067 
	C166.178314,718.903076 154.182083,689.074219 147.523941,657.171509 
	C143.713425,638.913208 142.483139,620.274658 141.740494,601.649780 
	C141.255417,589.484497 141.270370,577.239929 143.019699,565.217712 
	C147.939865,531.403992 155.043442,498.122711 167.233566,466.001038 
	C179.607925,433.393982 195.673325,402.905731 216.080765,374.639465 
	C241.014008,340.104492 272.692078,312.358459 305.431091,285.715393 
	C330.055908,265.675659 357.516052,249.789948 384.342346,233.004364 
	C402.277802,221.781876 420.391418,210.844299 438.342133,199.645859 
	C442.188385,197.246384 446.173096,194.848114 449.341858,190.497925 
	C446.607422,190.410568 444.876526,191.443466 443.073090,192.135849 
	C420.501862,200.801620 398.872681,211.610474 377.061401,221.923859 
	C348.118286,235.609512 321.038116,252.582764 294.577667,270.695435 
	C254.888596,297.863342 220.620087,330.602051 190.401093,367.796112 
	C176.965073,384.333466 167.020172,403.105530 157.497726,421.952301 
	C144.103165,448.462708 134.284393,476.374390 128.079208,505.544098 
	C122.487305,531.830811 118.399208,558.203308 118.918228,585.192139 
	C119.213036,600.522217 120.690384,615.726685 122.122971,630.965576 
	C123.860489,649.448059 127.624252,667.529602 132.984390,685.203735 
	C150.249542,742.132690 184.998001,787.933167 226.433029,829.154419 
	C250.208267,852.807068 278.079010,871.258301 307.029785,887.842468 
	C345.690582,909.988831 388.669861,917.617188 432.192871,922.612427 
	C455.719666,925.312622 479.334869,925.621582 503.002686,923.819580 
	C520.493591,922.487854 537.785278,920.031921 554.692505,915.536926 
	C592.022095,905.612488 627.527588,891.517639 661.115784,871.948914 
	C690.780701,854.665955 717.197998,833.693176 741.536194,809.841370 
	C757.382568,794.311707 771.412476,777.160889 784.426941,759.191467 
	C796.432129,742.615417 808.203430,726.044250 817.005920,707.289856 
	C830.567383,678.395996 842.015137,648.914978 849.289673,617.804260 
	C855.257568,592.281677 858.964966,566.456665 859.713745,540.291016 
	C860.710754,505.451263 855.125488,471.323486 847.057373,437.571228 
	C842.302612,417.679932 833.433228,399.294800 824.334351,381.196075 
	C808.249268,349.200958 785.445618,321.937408 760.955383,296.135071 
	C743.523071,277.768768 725.425232,260.033386 707.585083,242.055511 
	C701.564026,235.987915 695.422119,230.040207 689.335449,224.037735 
	C690.562195,227.317444 692.325867,230.091888 694.284729,232.720840 
	C713.609131,258.654846 735.281738,282.680573 755.449890,307.926361 
	C774.425964,331.680054 790.868713,357.100952 804.577393,384.278168 
	C811.972839,398.939636 816.482666,414.641907 821.403320,430.178772 
	C827.142273,448.299347 831.453186,466.842316 833.009949,485.786896 
	C835.388367,514.729919 834.364563,543.731689 831.893250,572.623901 
	C828.885010,607.792664 818.439026,641.059326 804.523438,673.322083 
	C794.803101,695.858215 784.008118,717.893982 769.099182,737.471008 
	C748.206482,764.905273 726.856018,792.011230 700.317810,814.453186 
	C681.355103,830.489075 662.166748,846.272583 640.878784,859.138245 
	C613.699524,875.564453 584.805298,888.348145 554.666931,898.429565 
	C534.931946,905.030884 515.427551,912.316589 494.937836,916.387024 
	C490.135742,917.341003 485.311707,917.410400 480.520233,916.703247 
	C477.349213,916.235352 473.836121,915.250854 473.842896,911.243774 
	C473.850067,906.981018 477.357452,906.125183 480.841919,905.646912 
	C483.311066,905.307983 485.787415,904.968567 488.224365,904.456970 
	C509.952179,899.895020 531.003052,893.044067 551.824829,885.456482 
	C587.070557,872.612671 620.466003,855.939880 650.945801,834.124084 
	C685.506165,809.387634 716.028442,780.216980 742.608337,746.871826 
	C771.674377,710.407776 792.787598,670.031250 805.283997,625.122742 
	C812.571716,598.932800 818.330933,572.488159 818.965942,545.160034 
	C819.372864,527.643372 818.141602,510.231842 815.864258,492.872040 
	C813.063477,471.523102 808.165527,450.613373 801.738159,430.126709 
	C791.369141,397.076111 773.817444,367.589905 755.136475,338.699860 
	C737.421326,311.303497 715.566711,287.231842 694.720459,262.322815 
	C670.956421,233.927414 648.046814,204.899033 634.285645,169.917786 
	C621.900635,138.435059 618.593811,106.143784 625.207397,72.869766 
	C625.846069,69.656784 627.716187,66.319336 626.000061,62.811272 
	C624.042664,62.763851 622.901855,63.749313 621.945129,64.895424 
	C617.306946,70.451942 613.084900,76.382271 612.188965,83.724388 
	C611.163574,92.128029 610.145325,100.638000 610.380127,109.066772 
	C610.796814,124.022598 612.777832,138.877777 615.669373,153.581741 
	C622.879211,190.245209 638.263184,223.478989 658.375000,254.674576 
	C674.904236,280.313202 694.312134,303.926422 711.120422,329.384125 
	C735.558533,366.397980 756.608032,405.000885 768.485352,448.072723 
	C777.938782,482.354584 781.892700,517.190430 780.372314,552.768677 
	C779.178162,580.711792 774.705872,607.962158 766.784729,634.772095 
	C749.336365,693.827942 714.934570,742.349304 673.331238,786.481750 
	C650.508484,810.691772 623.892273,830.019409 594.848633,847.405151 
M906.318115,570.498535 
	C905.919434,596.054260 902.612366,621.329529 897.257751,646.226257 
	C891.743896,671.863464 882.174438,696.202576 870.435608,719.687073 
	C852.528687,755.511108 830.891296,788.790405 802.937622,817.608459 
	C778.494385,842.807495 751.139709,864.296631 721.185730,882.870239 
	C690.062927,902.168640 656.372437,915.317139 622.463074,928.174377 
	C606.049500,934.397766 587.741821,934.067200 571.671448,942.555786 
	C572.926758,942.555786 574.172241,942.710754 575.367981,942.532349 
	C591.171448,940.174744 606.728088,936.684570 622.187927,932.647461 
	C656.381042,923.718445 688.933350,910.556946 719.638367,893.270874 
	C739.476074,882.102844 758.449219,869.425903 775.862976,854.474670 
	C794.743286,838.264160 812.530457,820.965515 829.196472,802.573364 
	C851.504700,777.954590 868.277466,749.727844 882.507812,719.722046 
	C893.992249,695.506104 902.758728,670.472412 909.199646,644.592590 
	C914.145264,624.721008 916.645874,604.450745 918.312378,583.994446 
	C920.337585,559.135925 920.581421,534.320618 917.367310,509.686859 
	C911.436096,464.229706 894.814758,422.700287 869.576843,384.405212 
	C854.243652,361.139160 836.158752,340.418793 815.713013,321.638489 
	C815.064087,321.042389 814.655884,319.544067 813.064148,320.400574 
	C814.228760,321.876007 815.311279,323.345001 816.492554,324.729767 
	C848.040283,361.713745 872.873779,402.652588 889.278809,448.528473 
	C891.573364,454.945007 893.737366,461.446564 895.370117,468.054962 
	C903.600159,501.362915 907.444275,535.169495 906.318115,570.498535 
M118.060547,684.255127 
	C115.504204,675.143494 113.040627,666.021545 111.265869,656.703552 
	C107.154137,635.115784 103.718636,613.413025 102.921730,591.453674 
	C101.608131,555.256470 106.988106,519.849976 116.445976,484.931396 
	C126.408073,448.151184 141.101517,413.373627 161.575714,381.362183 
	C189.453186,337.775696 226.412872,302.505493 267.082947,271.005615 
	C276.636810,263.605927 286.867065,257.079620 296.892334,250.077286 
	C295.716278,249.307999 295.080811,250.100464 294.400360,250.417633 
	C284.114838,255.212082 274.388641,260.977783 264.815277,267.064972 
	C235.105759,285.955688 208.158676,308.314087 184.838516,334.529510 
	C152.644058,370.721069 128.604080,411.914520 112.676071,457.915161 
	C99.848633,494.961243 93.140900,532.878235 93.198662,571.977356 
	C93.218033,585.094177 93.579796,598.242981 95.034294,611.337708 
	C97.019371,629.209167 99.566971,647.017578 104.462738,664.294006 
	C111.230942,688.177917 119.762428,711.385864 131.691513,733.371216 
	C145.881302,759.523010 160.853394,785.009827 181.808411,806.432251 
	C188.287582,813.055969 194.780045,819.735535 202.531174,824.943237 
	C197.841751,819.043823 192.883926,813.439819 187.974823,807.793457 
	C171.150543,788.442993 158.420059,766.345215 145.402115,744.431030 
	C134.213364,725.596008 125.132103,705.823486 118.060547,684.255127 
z"/>
<path fill="#000000" opacity="1.000000" stroke="none" 
	d="
M705.747314,443.388092 
	C713.761536,466.301300 719.282654,489.432678 721.911133,513.150452 
	C723.580627,528.214478 723.129761,543.360718 722.454224,558.547363 
	C721.563843,578.565735 719.674377,598.358887 715.441895,617.949585 
	C709.803772,644.045837 700.027893,668.570312 687.367554,691.961609 
	C678.724365,707.930847 669.883667,723.834839 658.540466,738.115845 
	C639.517639,762.065613 617.810303,783.406921 594.741577,803.429871 
	C562.506958,831.408630 525.353271,850.973083 486.245667,867.231445 
	C480.858246,869.471191 475.493927,871.734375 470.367615,874.543579 
	C467.432037,876.152344 464.373505,877.383362 460.883759,877.289307 
	C458.356140,877.221191 456.255798,876.583069 455.064911,874.207153 
	C453.828033,871.739502 454.855652,869.733643 456.481201,867.842651 
	C458.815338,865.127441 461.671448,863.268250 464.990845,861.910706 
	C481.030426,855.350708 496.937836,848.475098 512.407715,840.654175 
	C539.896484,826.757019 565.489075,809.854675 588.620911,789.587646 
	C623.712891,758.841675 653.520935,723.683716 675.542603,682.206543 
	C692.776550,649.746826 703.993164,615.418030 707.544067,578.897217 
	C710.780396,545.611206 710.121948,512.266174 701.588074,479.696594 
	C692.671936,445.667969 678.389832,413.796570 660.336060,383.590179 
	C647.071289,361.396423 631.613892,340.669952 617.592224,318.990448 
	C603.919067,297.849701 591.475647,275.945251 581.159729,252.990082 
	C575.014771,239.316132 571.993469,224.505707 569.783752,209.642395 
	C567.728088,195.814102 566.369568,181.925003 566.360291,167.921585 
	C566.359192,166.194672 565.795471,164.468124 565.448059,162.488342 
	C551.230042,187.541183 529.975952,205.570953 508.792938,223.453568 
	C480.716095,247.155945 449.369781,266.223480 418.397827,285.862335 
	C386.875549,305.850189 356.154419,327.231537 328.239349,352.081146 
	C273.434509,400.867615 233.592545,459.271454 213.660080,530.831055 
	C204.737976,562.862183 202.756119,595.076416 204.315353,627.770874 
	C205.882446,660.629944 214.491486,692.121582 225.906296,722.757141 
	C229.526001,732.471802 235.704681,741.267944 240.996429,750.318298 
	C259.020050,781.143616 281.639099,807.977417 310.359009,829.439453 
	C314.309784,832.391846 315.196442,836.377808 312.536285,839.740234 
	C310.049011,842.884094 307.117889,842.911682 303.016449,839.736389 
	C282.121826,823.559753 262.305267,806.143555 246.962585,784.487671 
	C229.386002,759.678589 214.310654,733.348450 205.054199,704.174011 
	C195.611374,674.412231 189.951294,644.060547 188.482635,612.649719 
	C186.153366,562.833496 197.841095,516.267456 217.439682,471.191711 
	C239.346100,420.808044 274.233032,380.188019 314.473877,343.738159 
	C351.808563,309.920624 393.938019,282.717133 436.231659,255.720764 
	C458.982147,241.198944 481.481018,226.218292 502.087036,208.713608 
	C520.931152,192.705627 537.838257,174.989883 551.255005,153.874039 
	C560.401733,139.478607 568.102600,124.527054 574.831360,108.960220 
	C575.887024,106.517784 577.091309,104.120613 578.443848,101.830650 
	C579.878235,99.402077 581.972595,97.588257 585.004944,98.378593 
	C588.021606,99.164841 588.402893,101.831444 588.220886,104.423431 
	C587.626953,112.883301 585.877991,121.200874 584.700439,129.580872 
	C581.186462,154.588455 582.117126,179.281387 586.647217,204.103836 
	C590.277039,223.993744 593.812927,243.831467 603.603088,261.771637 
	C618.448425,288.975525 634.169312,315.657623 651.685730,341.274170 
	C673.475647,373.140564 692.181641,406.695648 705.747314,443.388092 
z"/>
<path fill="#000000" opacity="1.000000" stroke="none" 
	d="
M507.498322,274.499329 
	C490.021210,291.766296 471.050415,306.610291 451.613068,321.036438 
	C426.613220,339.590912 400.997620,357.448853 377.854706,378.369080 
	C334.897003,417.200989 298.948730,461.362488 275.631256,514.956116 
	C265.580475,538.057190 260.310944,562.326050 257.014709,587.175232 
	C254.309570,607.568054 253.501480,628.024048 255.349258,648.448975 
	C257.590515,673.223389 263.835022,697.105530 271.533722,720.834167 
	C282.760071,755.435730 302.445862,783.997925 328.594574,808.619690 
	C330.410187,810.329285 332.465118,811.782715 334.306671,813.466858 
	C338.105957,816.941406 338.866241,820.998413 336.390472,824.028198 
	C333.934845,827.033203 329.791840,827.044739 325.765381,823.722046 
	C309.703857,810.468140 296.384979,794.829102 284.949799,777.433228 
	C262.889862,743.874329 249.423599,706.972656 243.443253,667.543396 
	C239.085403,638.811584 239.717896,609.824524 243.396820,580.888733 
	C246.672882,555.121643 252.899902,530.197510 262.899445,506.284515 
	C275.571472,475.980560 291.876648,447.799011 313.628876,422.997681 
	C329.117371,405.338104 344.670715,387.750793 362.245941,372.057068 
	C385.274933,351.493378 409.879822,332.965698 434.946991,315.018127 
	C464.992798,293.505981 492.900848,269.652679 516.655640,241.169342 
	C521.595276,235.246475 527.359680,230.171204 534.682800,227.248108 
	C540.049866,225.105774 542.535461,225.997650 545.501648,230.898209 
	C550.219299,238.692459 553.121643,247.203094 554.962769,256.038177 
	C559.983643,280.132812 568.445801,302.977875 578.705444,325.307007 
	C594.365234,359.389008 613.170288,391.864594 629.198486,425.763580 
	C644.925232,459.024902 655.218933,493.623047 659.677917,530.182800 
	C665.427551,577.325317 658.676086,622.647949 639.895813,665.881470 
	C622.961426,704.865540 599.341797,739.545288 568.469421,769.240234 
	C546.875916,790.010376 524.291138,809.386597 498.306183,824.348816 
	C483.461334,832.896545 467.724701,839.842651 451.859253,846.384583 
	C448.465820,847.783875 445.310974,847.629150 442.660767,844.867554 
	C439.549835,841.625793 440.255524,837.149109 444.219788,834.834351 
	C445.508514,834.081787 446.881897,833.432007 448.284821,832.923523 
	C487.215637,818.812439 520.112183,795.583008 549.582458,766.853455 
	C570.913513,746.058594 590.554993,723.969299 606.225769,698.560059 
	C627.588806,663.921143 641.614319,626.640686 645.765747,585.968323 
	C649.713562,547.290710 644.908508,509.688019 632.096741,472.940308 
	C620.853943,440.693115 605.312500,410.539124 588.997131,380.700989 
	C575.644592,356.281525 562.575867,331.688141 553.363953,305.344635 
	C548.532715,291.528625 544.789062,277.333435 540.491882,263.328583 
	C539.564880,260.307312 538.604492,257.256042 537.245972,254.416397 
	C534.895691,249.503601 531.763123,248.873352 527.938843,252.775894 
	C521.063843,259.791626 514.464172,267.077209 507.498322,274.499329 
z"/>
<path fill="#000000" opacity="1.000000" stroke="none" 
	d="
M335.063141,509.045044 
	C321.101898,534.925842 311.246918,561.837769 306.804962,590.622742 
	C302.976135,615.434082 302.211121,640.291504 304.642181,665.324402 
	C306.646423,685.962463 310.523315,706.175232 317.085938,725.789246 
	C326.367737,753.530029 340.068390,778.916260 359.226135,801.188049 
	C361.081085,803.344421 362.988068,805.447510 364.074615,808.110901 
	C365.506836,811.621643 364.824707,814.817017 361.756470,816.995605 
	C358.748108,819.131775 356.313660,817.059692 354.345612,814.968689 
	C344.023560,804.001648 335.097046,791.916077 327.578949,778.925598 
	C311.529419,751.193726 300.634521,721.556458 294.381195,690.021912 
	C289.175781,663.771667 288.992065,637.350769 290.050140,610.936340 
	C291.006622,587.059204 297.046967,563.948303 304.709595,541.318726 
	C316.432037,506.699585 336.061066,476.827728 359.272491,448.939972 
	C387.307495,415.256866 419.980682,386.293701 451.777802,356.404633 
	C463.063721,345.795959 473.722717,334.518677 484.622650,323.501831 
	C488.855774,319.223328 493.160187,315.098145 498.644867,312.380280 
	C504.948181,309.256744 510.268982,310.251953 514.619934,315.711243 
	C517.229492,318.985504 519.531799,322.549408 520.768127,326.535004 
	C529.084167,353.343323 543.116516,377.388214 556.797791,401.610413 
	C575.339050,434.437286 588.916443,469.204376 597.713074,505.866608 
	C603.865417,531.508057 603.087585,557.449951 600.943115,583.377502 
	C598.397034,614.161133 590.526550,643.771729 577.805664,671.830811 
	C566.075073,697.705627 550.498535,721.289001 532.424255,743.345337 
	C508.622253,772.391296 480.549896,796.402344 449.346863,816.967896 
	C443.654358,820.719727 437.934845,824.518188 431.570648,827.097046 
	C426.925751,828.979248 423.236298,827.538269 421.673309,823.504883 
	C420.066620,819.358826 421.792267,816.229858 426.762268,814.430054 
	C437.951324,810.378235 446.662537,802.446289 456.155060,795.732971 
	C484.035645,776.015076 507.464417,751.608643 528.279236,724.856995 
	C551.096985,695.531006 566.587830,662.314209 577.820923,626.834290 
	C587.562744,596.064697 589.500671,564.703247 587.523865,533.016418 
	C586.190063,511.636871 578.841003,491.364471 571.893372,471.218262 
	C561.025818,439.705505 544.720825,410.812744 528.141296,382.080475 
	C520.052673,368.062836 512.520264,353.802948 507.308716,338.401917 
	C504.895874,331.271454 501.168182,330.388031 495.396759,335.403931 
	C488.475677,341.418915 482.254517,348.154968 475.876190,354.732422 
	C457.415588,373.769348 436.597412,390.265137 417.571991,408.707672 
	C397.080841,428.571045 378.223083,449.876740 360.251770,472.003479 
	C350.882294,483.539429 342.456940,495.717743 335.063141,509.045044 
z"/>
<path fill="#000000" opacity="1.000000" stroke="none" 
	d="
M428.333069,446.347473 
	C439.875427,434.317963 451.102448,422.544159 465.004242,413.581818 
	C479.296783,404.367523 493.176605,408.272247 502.325195,421.570618 
	C514.348328,439.047394 523.392334,458.158966 530.505981,478.211395 
	C543.001892,513.435974 544.700134,549.746643 542.724548,586.614075 
	C540.431946,629.396606 524.021973,667.252197 503.580139,703.957764 
	C485.667023,736.122742 463.742218,765.014893 436.300385,789.610107 
	C430.355133,794.938660 424.184326,800.051514 417.815735,804.864563 
	C402.536774,816.411438 390.964600,814.893921 376.710175,798.589966 
	C364.633179,784.776611 357.673370,767.942261 350.910248,750.949707 
	C340.255768,724.179688 337.104767,696.205505 335.775085,667.910400 
	C333.041412,609.738708 348.230865,556.206360 379.054962,507.038788 
	C392.917664,484.926361 410.190125,465.485504 428.333069,446.347473 
M515.040833,479.382812 
	C511.147552,468.517639 505.639496,458.426575 500.144196,448.330322 
	C496.641785,441.895569 493.402191,435.284363 488.374512,429.827606 
	C482.925171,423.913177 477.330780,423.075928 470.581360,427.432465 
	C466.954376,429.773621 463.361542,432.286011 460.192474,435.198914 
	C441.142700,452.709137 423.592651,471.658173 407.818329,492.149353 
	C375.701233,533.870117 353.705780,579.785278 349.953674,633.252380 
	C348.044647,660.455811 348.815247,687.524597 353.723602,714.300903 
	C358.704803,741.474426 368.623596,766.731323 385.676392,788.909973 
	C393.498291,799.083130 400.691101,800.567871 410.982971,792.775330 
	C417.352783,787.952332 423.361420,782.676880 429.225647,777.227112 
	C451.375824,756.642639 469.166290,732.632324 485.153473,707.117004 
	C503.494446,677.845032 515.318176,645.940308 523.490295,612.621704 
	C528.363342,592.753784 528.042053,572.369751 527.991089,552.024780 
	C527.929077,527.265442 523.603394,503.363953 515.040833,479.382812 
z"/>
<path fill="#000000" opacity="1.000000" stroke="none" 
	d="
M441.185760,722.131104 
	C431.735596,738.106689 421.486603,753.058228 408.698730,766.092163 
	C403.346161,771.547546 395.922882,770.541870 392.792053,763.626038 
	C387.112427,751.079956 380.146545,739.015320 377.708984,725.159485 
	C376.639984,719.083069 376.009674,712.993103 375.529633,706.849060 
	C374.077026,688.256714 373.570892,669.733643 375.432129,651.085510 
	C376.977722,635.600037 380.004761,620.550842 384.459808,605.696411 
	C390.355164,586.039246 397.392303,566.877441 407.406525,548.876648 
	C415.890167,533.627136 426.746307,520.171997 438.381256,507.308136 
	C441.511230,503.847565 445.627106,501.410095 449.763885,499.260864 
	C458.674500,494.631348 466.694061,497.159027 471.679474,506.172211 
	C479.371826,520.079346 483.512573,535.191711 485.075958,550.848206 
	C488.301788,583.153259 485.548492,615.055481 475.971741,646.127441 
	C467.745239,672.818420 455.692902,697.861023 441.185760,722.131104 
M473.191376,585.837585 
	C474.678802,571.776550 472.707672,557.904114 470.568451,544.093018 
	C469.270020,535.710205 467.215515,527.405823 463.475464,519.708801 
	C460.114807,512.792603 455.684204,511.901855 449.394623,516.406189 
	C444.309479,520.047974 440.377716,524.793091 436.655060,529.706360 
	C409.225494,565.908264 393.844788,606.807373 388.963287,651.842041 
	C386.344635,676.000793 387.319275,700.051880 390.393158,724.083252 
	C391.787445,734.983643 397.228119,743.871521 404.256500,753.398315 
	C442.800415,703.536865 467.745422,649.239197 473.191376,585.837585 
z"/>
</svg>